<?xml version="1.0" standalone="no"?>
<!DOCTYPE svg PUBLIC "-//W3C//DTD SVG 20010904//EN"
 "http://www.w3.org/TR/2001/REC-SVG-20010904/DTD/svg10.dtd">
<svg version="1.0" xmlns="http://www.w3.org/2000/svg"
 width="832.000000pt" height="832.000000pt" viewBox="0 0 832.000000 832.000000"
 preserveAspectRatio="xMidYMid meet">
<metadata>
Created by potrace 1.14, written by Peter Selinger 2001-2017
</metadata>
<g transform="translate(0.000000,832.000000) scale(0.100000,-0.100000)"
fill="#000000" stroke="none">
<path d="M3388 7785 c-2 -3 -33 -7 -69 -9 -83 -7 -159 -15 -184 -20 -12 -2
-48 -8 -80 -12 -63 -8 -73 -10 -77 -14 -2 -1 -16 -4 -33 -6 -148 -24 -466
-113 -600 -169 -48 -20 -150 -60 -155 -60 -16 -2 -310 -153 -389 -200 -51 -30
-97 -55 -101 -55 -5 0 -10 -3 -12 -7 -2 -5 -43 -35 -93 -67 -49 -33 -92 -62
-95 -65 -3 -4 -32 -26 -65 -50 -33 -25 -62 -47 -65 -51 -3 -3 -14 -13 -26 -21
-77 -52 -360 -326 -459 -443 -27 -33 -58 -69 -68 -80 -73 -86 -307 -422 -307
-442 0 -3 -8 -18 -19 -32 -24 -34 -140 -260 -170 -332 -13 -30 -34 -78 -47
-107 -13 -28 -24 -55 -24 -58 0 -4 -11 -34 -24 -68 -24 -62 -32 -85 -35 -99
-1 -4 -9 -27 -17 -50 -9 -24 -17 -50 -19 -58 -3 -8 -16 -58 -31 -110 -29 -106
-34 -126 -38 -155 -2 -11 -6 -29 -9 -40 -3 -11 -8 -36 -11 -55 -3 -19 -10 -57
-15 -85 -5 -27 -12 -77 -16 -110 -3 -33 -8 -67 -10 -75 -25 -92 -26 -670 -1
-795 2 -11 7 -47 10 -80 4 -33 9 -68 12 -77 3 -9 7 -32 9 -50 4 -29 36 -187
50 -243 3 -11 7 -30 9 -43 3 -12 7 -26 10 -30 3 -5 7 -19 9 -33 8 -43 118
-372 149 -444 61 -143 162 -344 230 -460 60 -102 194 -305 235 -355 6 -8 33
-42 60 -75 73 -91 74 -92 138 -163 124 -137 293 -297 425 -402 122 -98 416
-300 437 -300 2 0 17 -9 32 -19 31 -23 286 -152 298 -152 4 0 17 -6 28 -13 43
-28 378 -150 495 -181 14 -3 59 -15 100 -26 41 -11 88 -22 104 -24 15 -2 37
-7 48 -11 11 -3 30 -7 41 -9 12 -1 49 -7 82 -13 33 -6 83 -14 110 -17 28 -3
64 -8 80 -11 86 -12 161 -16 385 -17 214 -2 316 3 435 19 17 2 46 6 65 8 63 8
184 29 245 43 17 3 37 7 45 9 19 3 43 9 100 24 25 7 52 14 60 15 46 10 228 69
310 100 52 20 115 44 140 53 25 9 47 20 48 25 2 4 9 7 16 7 7 0 50 19 97 42
46 23 86 42 89 42 3 1 51 27 108 59 56 31 107 57 112 57 6 0 10 4 10 8 0 5 19
19 43 32 50 28 194 125 223 151 11 11 25 19 31 19 6 0 13 3 15 8 2 4 37 34 78
67 108 86 200 168 200 179 0 2 -35 3 -77 2 -75 -2 -82 -5 -173 -58 -104 -61
-404 -208 -424 -208 -3 0 -17 -5 -33 -12 -15 -6 -32 -12 -38 -14 -5 -1 -41
-13 -80 -27 -103 -36 -373 -109 -393 -106 -4 1 -9 1 -12 -1 -3 -1 -16 -3 -30
-6 -14 -2 -48 -9 -76 -15 -28 -5 -55 -9 -60 -8 -5 1 -11 0 -14 -1 -7 -3 -52
-8 -150 -16 -155 -14 -529 -8 -630 10 -14 2 -47 7 -75 10 -47 6 -76 10 -127
20 -95 19 -167 37 -263 63 -49 14 -94 26 -100 27 -5 1 -23 7 -40 13 -16 6 -73
27 -125 46 -146 54 -323 136 -425 197 -27 16 -59 34 -70 39 -48 21 -309 203
-373 259 -13 11 -42 35 -65 54 -50 39 -274 261 -340 336 -56 63 -206 263 -233
310 -10 17 -22 32 -26 32 -4 0 -8 4 -8 10 0 5 -15 33 -33 62 -32 51 -131 228
-133 238 0 3 -16 39 -36 80 -58 122 -106 244 -142 360 -58 185 -60 194 -96
380 -11 58 -23 121 -25 140 -11 83 -18 159 -19 207 -1 29 -3 53 -6 53 -3 0 -6
42 -7 93 -2 50 -4 126 -6 167 -1 41 -1 79 1 83 3 5 6 41 8 80 2 40 6 86 8 102
3 17 8 57 12 90 8 60 9 68 14 83 1 4 2 10 1 15 -1 4 4 28 10 55 6 26 13 58 15
72 3 14 18 77 35 140 17 63 32 122 34 130 7 27 86 242 104 285 94 218 242 479
370 650 130 174 340 399 481 516 36 30 67 56 70 60 3 3 23 18 45 34 22 17 42
33 45 36 3 3 41 30 85 60 44 30 82 56 85 59 12 12 112 70 121 70 5 0 9 3 9 8
0 4 10 12 23 18 12 6 76 38 142 72 154 78 427 189 510 207 6 1 35 9 66 19 31
9 69 19 85 21 16 3 56 11 89 20 67 17 89 21 155 30 25 3 52 8 60 10 9 3 40 7
70 10 30 3 82 8 115 12 33 4 148 7 255 7 246 -1 348 -8 530 -40 47 -9 100 -17
118 -19 18 -2 37 -7 42 -10 6 -4 20 -8 33 -11 22 -4 51 -10 85 -18 13 -3 125
-38 257 -80 6 -2 23 -8 38 -14 16 -7 30 -12 31 -12 2 0 21 -8 42 -17 22 -9 44
-17 50 -19 23 -4 303 -146 380 -192 79 -47 83 -49 155 -47 41 1 75 3 77 4 13
5 -201 183 -344 286 -15 11 -33 26 -40 33 -7 6 -15 12 -18 12 -3 0 -52 31
-111 69 -86 56 -346 204 -365 207 -3 0 -45 19 -93 42 -49 23 -93 42 -98 42 -5
0 -17 4 -27 9 -26 14 -89 41 -95 41 -3 0 -18 5 -34 11 -15 6 -29 10 -31 10 -1
-1 -16 6 -32 14 -16 8 -33 15 -37 16 -5 0 -37 8 -73 19 -99 29 -204 57 -250
66 -14 3 -33 7 -42 10 -20 6 -39 10 -143 29 -88 15 -132 22 -215 30 -30 4 -68
9 -85 12 -36 6 -551 13 -557 8z"/>
<path d="M5625 7782 c-3 -3 -25 -7 -48 -8 -44 -1 -139 -12 -177 -19 -12 -2
-48 -7 -79 -11 -31 -3 -57 -7 -59 -9 -1 -1 55 -32 125 -67 138 -70 144 -74
290 -162 91 -54 302 -200 313 -216 13 -18 53 -30 83 -25 36 7 79 12 187 22
140 14 487 7 590 -11 14 -3 48 -7 75 -11 28 -3 59 -8 70 -11 11 -2 34 -6 50
-8 25 -3 138 -27 195 -41 273 -67 575 -191 820 -335 93 -55 97 -56 173 -57 42
0 77 2 77 6 0 3 -21 24 -47 46 -25 22 -58 51 -73 65 -14 14 -62 52 -106 85
-43 33 -80 63 -82 68 -2 4 -10 7 -18 7 -8 0 -14 5 -14 10 0 6 -7 10 -15 10 -8
0 -15 4 -15 8 0 19 -301 202 -480 291 -77 39 -142 71 -145 71 -6 1 -75 29
-100 40 -34 17 -156 61 -265 96 -105 35 -166 52 -290 81 -36 8 -69 16 -75 17
-5 2 -28 6 -50 10 -109 19 -153 26 -190 31 -22 2 -51 7 -65 9 -83 17 -641 31
-655 18z"/>
<path d="M4137 6994 c-1 -1 -45 -5 -97 -8 -52 -3 -104 -7 -115 -10 -11 -2 -51
-7 -90 -12 -72 -8 -83 -10 -87 -14 -2 -1 -14 -3 -28 -5 -14 -2 -36 -6 -50 -9
-14 -3 -34 -8 -45 -10 -55 -12 -122 -30 -138 -38 -56 -29 -332 -311 -452 -463
-22 -27 -43 -51 -47 -53 -5 -2 -8 -8 -8 -13 0 -6 -9 -20 -20 -32 -19 -20 -96
-128 -130 -182 -8 -13 -36 -58 -62 -100 -27 -41 -48 -80 -48 -85 0 -6 -3 -10
-7 -10 -5 0 -13 -10 -19 -23 -6 -12 -38 -76 -71 -142 -34 -66 -71 -142 -83
-170 -11 -27 -25 -59 -30 -70 -5 -11 -18 -42 -28 -70 -10 -27 -23 -59 -27 -70
-5 -11 -9 -22 -10 -25 0 -3 -17 -54 -37 -115 -32 -95 -81 -271 -92 -331 -2
-11 -11 -53 -19 -94 -9 -41 -18 -95 -22 -120 -3 -25 -8 -56 -10 -70 -22 -123
-29 -256 -29 -495 0 -215 4 -301 19 -415 2 -19 7 -55 10 -80 6 -47 12 -81 15
-90 1 -3 2 -8 1 -12 -1 -6 31 -158 64 -306 3 -13 12 -42 20 -65 8 -23 16 -54
19 -69 2 -15 7 -32 11 -38 4 -6 9 -23 11 -38 3 -15 9 -29 15 -30 5 -2 9 -11 9
-20 0 -18 54 -166 89 -247 56 -126 116 -251 128 -266 7 -8 13 -23 13 -32 0 -9
4 -17 8 -17 4 0 21 -27 37 -60 17 -33 33 -60 38 -60 4 0 7 -5 7 -11 0 -10 159
-253 192 -294 9 -11 44 -56 79 -100 34 -44 67 -84 73 -90 6 -5 24 -26 40 -45
39 -48 178 -191 263 -270 67 -63 114 -86 193 -95 8 -1 22 -4 30 -7 15 -6 182
-38 233 -44 15 -2 42 -6 60 -9 171 -24 547 -24 680 0 15 3 46 8 70 11 81 11
92 12 95 14 1 2 10 3 20 4 9 1 33 6 52 11 45 11 38 10 87 19 24 4 45 11 47 15
3 4 -30 27 -72 51 -105 60 -332 215 -357 244 -5 7 -20 19 -33 27 -39 28 -153
131 -242 220 -87 87 -106 109 -196 214 -50 59 -194 251 -194 259 0 2 -18 30
-39 62 -76 114 -205 364 -256 499 -33 87 -85 234 -90 256 -2 9 -11 39 -20 65
-9 27 -18 58 -20 69 -3 20 -9 45 -21 95 -3 14 -7 34 -9 45 -2 11 -6 31 -10 45
-3 14 -8 41 -10 60 -3 19 -8 46 -11 60 -3 14 -8 43 -11 65 -2 22 -6 56 -9 75
-21 173 -21 580 0 671 4 13 8 42 10 64 4 36 11 84 21 140 22 124 82 357 114
438 6 15 8 27 5 27 -4 0 -2 6 3 13 6 6 16 30 23 52 7 22 15 45 19 50 3 6 6 12
6 15 1 3 11 27 23 54 12 27 22 50 22 53 0 7 121 248 152 303 43 76 192 300
217 327 12 12 21 25 21 28 0 4 6 12 13 19 6 7 30 35 52 61 120 146 293 319
426 425 17 14 45 37 63 52 17 15 34 28 37 28 3 0 17 9 30 21 34 30 246 169
258 169 5 0 11 3 13 8 2 4 20 16 41 26 32 17 40 30 19 32 -4 0 -47 10 -97 21
-49 12 -106 24 -125 27 -19 3 -46 8 -60 10 -14 2 -50 7 -80 10 -30 4 -75 9
-99 12 -42 6 -349 13 -354 8z"/>
<path d="M8145 1502 c-11 -2 -22 -7 -25 -11 -5 -8 -84 -54 -140 -83 -19 -10
-42 -23 -50 -28 -21 -14 -209 -100 -295 -136 -45 -18 -232 -84 -255 -89 -8 -2
-76 -20 -150 -39 -74 -19 -153 -37 -175 -40 -22 -4 -65 -11 -95 -16 -225 -38
-644 -47 -797 -16 -70 14 -135 16 -148 4 -24 -22 -37 -31 -125 -92 -47 -33
-87 -62 -90 -65 -17 -21 -270 -166 -419 -242 l-113 -58 38 -9 c22 -6 62 -13
89 -16 28 -3 61 -8 75 -10 147 -27 627 -27 800 -1 14 2 43 6 65 10 23 3 52 7
65 10 13 3 40 7 60 10 20 3 47 8 60 10 14 3 39 8 55 11 17 3 57 12 90 20 33 9
69 18 80 21 24 5 26 6 85 22 25 8 50 14 55 16 6 1 17 5 25 8 8 3 40 13 70 22
178 56 481 192 670 302 93 54 314 197 336 218 33 29 55 45 64 45 6 0 10 4 10
8 0 5 19 23 43 40 23 17 56 43 72 57 17 15 51 45 78 68 26 23 47 44 47 48 0 6
-126 7 -155 1z"/>
</g>
</svg>
